# xmcd CD database file
#
# Track frame offsets:
#	150
#	13567
#	27723
#	47182
#	59237
#	70971
#	87152
#	100106
#	112777
#	129853
#	145133
#	159403
#	175284
#	194077
#	206348
#	219799
#	233824
#	250060
#	265040
#	277259
#	291486
#	306890
#
# Disc length: 4283 seconds
#
# Revision: 0
# Processed by: cddbd v1.4PL0 Copyright (c) Steve Scherf et al.
# Submitted via: CDex 1.50beta9
#
DISCID=4810b916
DTITLE=Teddy Wilson - The Complete Verve Recordings Of The Teddy Wilson Trio, Disc 2
DYEAR=1956
DGENRE=Jazz
TTITLE0=Blues For The Oldest Profession
TTITLE1=It Had To Be You
TTITLE2=You Took Advantage Of Me
TTITLE3=Three Little Words
TTITLE4=If I Had You
TTITLE5=Who's Sorry Now
TTITLE6=The Birth Of The Blues
TTITLE7=When Your Lover Has Gone
TTITLE8=Moonlight On The Ganges
TTITLE9=April In Paris
TTITLE10=Hallelujah
TTITLE11=Get Out Of Town
TTITLE12=Stompin' At The Savoy
TTITLE13=Say It Ain't So
TTITLE14=All Of Me
TTITLE15=Stars Fell On Alabama
TTITLE16=I Got Rhythm
TTITLE17=On The Sunny Side Of The Street
TTITLE18=Sweet Georgia Brown
TTITLE19=As Time Goes By
TTITLE20=Smiles
TTITLE21=When Your Lover Has Gone (Alt)
EXTD=YEAR: 1956
EXTT0=
EXTT1=
EXTT2=
EXTT3=
EXTT4=
EXTT5=
EXTT6=
EXTT7=
EXTT8=
EXTT9=
EXTT10=
EXTT11=
EXTT12=
EXTT13=
EXTT14=
EXTT15=
EXTT16=
EXTT17=
EXTT18=
EXTT19=
EXTT20=
EXTT21=
PLAYORDER=
